<?xml version="1.0" encoding="UTF-8"?>
<svg width="19px" height="11px" viewBox="0 0 19 11" version="1.1" xmlns="http://www.w3.org/2000/svg" xmlns:xlink="http://www.w3.org/1999/xlink">
    <!-- Generator: sketchtool 51.2 (57519) - http://www.bohemiancoding.com/sketch -->
    <title>E98304FC-26C6-4D49-B788-686C7B9762F2</title>
    <desc>Created with sketchtool.</desc>
    <defs></defs>
    <g id="Page-1" stroke="none" stroke-width="1" fill="none" fill-rule="evenodd">
        <g id="Sophie-r1b" transform="translate(-1819.000000, -7258.000000)" fill="#847876" fill-rule="nonzero">
            <g id="Footer" transform="translate(0.000000, 7175.000000)">
                <g id="Na-vrh" transform="translate(1798.000000, 60.000000)">
                    <g id="Arrow" transform="translate(21.000000, 23.000000)">
                        <path d="M14.604235,6.4405977 L6.30683563,14.6100422 C5.77902081,15.1299859 4.92325955,15.1299859 4.39570097,14.6100422 C3.86809968,14.0905611 3.86809968,13.2480126 4.39570097,12.7285735 L11.7376184,5.49986334 L4.3959145,-1.72859452 C3.86831321,-2.24828592 3.86831321,-3.0907503 4.3959145,-3.61023145 C4.92351579,-4.12992285 5.77923434,-4.12992285 6.30704917,-3.61023145 L14.6044485,4.55933922 C14.8682492,4.81920595 15,5.15942952 15,5.49982129 C15,5.84038126 14.8679929,6.18085713 14.604235,6.4405977 Z" id="Shape" transform="translate(9.500000, 5.500000) rotate(-90.000000) translate(-9.500000, -5.500000) "></path>
                    </g>
                </g>
            </g>
        </g>
    </g>
</svg>