<?xml version="1.0" encoding="UTF-8"?>
<svg width="13px" height="24px" viewBox="0 0 13 24" version="1.1" xmlns="http://www.w3.org/2000/svg" xmlns:xlink="http://www.w3.org/1999/xlink">
    <!-- Generator: sketchtool 51.2 (57519) - http://www.bohemiancoding.com/sketch -->
    <title>BBD72AC5-4E26-4F13-B0EA-F58623A43EC0</title>
    <desc>Created with sketchtool.</desc>
    <defs></defs>
    <g id="Page-1" stroke="none" stroke-width="1" fill="none" fill-rule="evenodd">
        <g id="Sophie-r1b" transform="translate(-815.000000, -7253.000000)" fill="#FFFFFF" fill-rule="nonzero">
            <g id="Footer" transform="translate(0.000000, 7175.000000)">
                <g id="Social-icons" transform="translate(791.000000, 60.000000)">
                    <g id="facebook" transform="translate(24.000000, 18.000000)">
                        <path d="M0.441522581,12.7824 L3.07230968,12.7824 L3.07230968,23.6129032 C3.07230968,23.8267355 3.24557419,24 3.45940645,24 L7.92,24 C8.13383226,24 8.30709677,23.8267355 8.30709677,23.6129032 L8.30709677,12.8334194 L11.3314065,12.8334194 C11.5280516,12.8334194 11.6934968,12.6858581 11.7159484,12.490529 L12.1752774,8.50327742 C12.1878968,8.39357419 12.1531355,8.28371613 12.0797419,8.20141935 C12.006271,8.11904516 11.9011355,8.07189677 11.7908129,8.07189677 L8.30725161,8.07189677 L8.30725161,5.57249032 C8.30725161,4.81904516 8.71292903,4.43698065 9.51313548,4.43698065 C9.62717419,4.43698065 11.7908129,4.43698065 11.7908129,4.43698065 C12.0046452,4.43698065 12.1779097,4.26363871 12.1779097,4.04988387 L12.1779097,0.38996129 C12.1779097,0.176129032 12.0046452,0.00286451613 11.7908129,0.00286451613 L8.65184516,0.00286451613 C8.62970323,0.00178064516 8.58054194,0 8.50807742,0 C7.96343226,0 6.07029677,0.106916129 4.57486452,1.48265806 C2.91793548,3.0072 3.14825806,4.83259355 3.20330323,5.14908387 L3.20330323,8.07181935 L0.441522581,8.07181935 C0.227690323,8.07181935 0.0544258065,8.24508387 0.0544258065,8.45891613 L0.0544258065,12.3952258 C0.0544258065,12.6090581 0.227690323,12.7824 0.441522581,12.7824 Z" id="XMLID_835_"></path>
                    </g>
                </g>
            </g>
        </g>
    </g>
</svg>