<?xml version="1.0" encoding="UTF-8"?>
<svg width="20px" height="18px" viewBox="0 0 20 18" version="1.1" xmlns="http://www.w3.org/2000/svg" xmlns:xlink="http://www.w3.org/1999/xlink">
    <!-- Generator: sketchtool 51.2 (57519) - http://www.bohemiancoding.com/sketch -->
    <title>07BEAD12-5D46-4D0A-88C0-0A03FACEA654</title>
    <desc>Created with sketchtool.</desc>
    <defs></defs>
    <g id="Page-1" stroke="none" stroke-width="1" fill="none" fill-rule="evenodd">
        <g id="Sophie-r1b" transform="translate(-525.000000, -26.000000)" fill="#544A49" fill-rule="nonzero">
            <g id="Home">
                <g id="Header">
                    <g id="Menu" transform="translate(525.000000, 25.000000)">
                        <g id="Menu-icon" transform="translate(0.000000, 1.000000)">
                            <path d="M2.64528,17.19072 C2.64528,17.19072 2.628,17.6256 3.0528,17.6256 C3.58128,17.6256 7.95672,17.61984 7.95672,17.61984 L7.96392,13.60152 C7.96392,13.60152 7.8948,12.93912 8.53776,12.93912 L10.57248,12.93912 C11.3328,12.93912 11.286,13.60152 11.286,13.60152 L11.27736,17.60688 C11.27736,17.60688 15.426,17.60688 16.0776,17.60688 C16.61688,17.60688 16.5924,17.06544 16.5924,17.06544 L16.5924,9.65736 L9.82728,3.6396 L2.64528,9.65736 C2.64528,9.65736 2.64528,17.19072 2.64528,17.19072 Z" id="Shape"></path>
                            <path d="M0,9.0972 C0,9.0972 0.60984,10.22112 1.93968,9.0972 L9.88704,2.37384 L17.33832,9.05544 C18.87768,10.16568 19.4544,9.05544 19.4544,9.05544 L9.88704,0.3888 L0,9.0972 Z" id="Shape"></path>
                            <polygon id="Shape" points="17.1576 2.358 15.24096 2.358 15.24888 4.68216 17.1576 6.30144"></polygon>
                        </g>
                    </g>
                </g>
            </g>
        </g>
    </g>
</svg>