<?xml version="1.0" encoding="UTF-8"?>
<svg width="22px" height="26px" viewBox="0 0 22 26" version="1.1" xmlns="http://www.w3.org/2000/svg" xmlns:xlink="http://www.w3.org/1999/xlink">
    <!-- Generator: sketchtool 51.2 (57519) - http://www.bohemiancoding.com/sketch -->
    <title>14EA5D0A-D254-4EAD-AAC3-C6A5DB0010BC</title>
    <desc>Created with sketchtool.</desc>
    <defs></defs>
    <g id="Page-1" stroke="none" stroke-width="1" fill="none" fill-rule="evenodd">
        <g id="Sophie-r1b" transform="translate(-932.000000, -7252.000000)" fill="#FFFFFF" fill-rule="nonzero">
            <g id="Footer" transform="translate(0.000000, 7175.000000)">
                <g id="Social-icons" transform="translate(791.000000, 60.000000)">
                    <g id="youtube-logo" transform="translate(141.000000, 17.000000)">
                        <path d="M18.4712667,19.0181333 L17.0444444,19.0181333 L17.0510889,18.1893111 C17.0510889,17.8209778 17.3535556,17.5196667 17.7230444,17.5196667 L17.8140444,17.5196667 C18.1844,17.5196667 18.4877333,17.8209778 18.4877333,18.1893111 L18.4712667,19.0181333 Z M13.1193111,17.2420444 C12.7573333,17.2420444 12.4612222,17.4852889 12.4612222,17.7831333 L12.4612222,21.814 C12.4612222,22.1112667 12.7573333,22.3539333 13.1193111,22.3539333 C13.4827333,22.3539333 13.7791333,22.1112667 13.7791333,21.814 L13.7791333,17.7831333 C13.7791333,17.485 13.4827333,17.2420444 13.1193111,17.2420444 Z M21.8111111,14.9872667 L21.8111111,22.6555333 C21.8111111,24.4948889 20.2161556,26 18.2664444,26 L3.6894,26 C1.73911111,26 0.144444444,24.4948889 0.144444444,22.6555333 L0.144444444,14.9872667 C0.144444444,13.1479111 1.73911111,11.6425111 3.6894,11.6425111 L18.2664444,11.6425111 C20.2161556,11.6425111 21.8111111,13.1479111 21.8111111,14.9872667 Z M4.6618,23.4881111 L4.66064444,15.4104889 L6.46764444,15.4110667 L6.46764444,14.2142 L1.65071111,14.2069778 L1.65071111,15.3836222 L3.15437778,15.3879556 L3.15437778,23.4881111 L4.6618,23.4881111 Z M10.0784667,16.6137111 L8.57191111,16.6137111 L8.57191111,20.9271111 C8.57191111,21.5511111 8.60975556,21.8631111 8.5696,21.9731778 C8.44711111,22.3077111 7.89648889,22.6630444 7.68184444,22.0092889 C7.64544444,21.8948889 7.67751111,21.5496667 7.67693333,20.9568667 L7.67086667,16.6137111 L6.17268889,16.6137111 L6.17731111,20.8886889 C6.17846667,21.5438889 6.16257778,22.0324 6.18251111,22.2548444 C6.2192,22.6468667 6.2062,23.1038889 6.56991111,23.3650444 C7.24764444,23.8532667 8.54677778,23.2922444 8.87177778,22.5942889 L8.86888889,23.4849333 L10.0787556,23.4863778 L10.0784667,16.6137111 Z M14.898,21.5531333 L14.8948222,17.9631111 C14.8936667,16.5949333 13.8701333,15.7756444 12.4808667,16.8826667 L12.4869333,14.2136222 L10.9821111,14.2159333 L10.9748889,23.4286 L12.2124889,23.4106889 L12.3251556,22.8369556 C13.9062444,24.2874667 14.9003111,23.2934 14.898,21.5531333 Z M19.6129556,21.0773333 L18.4834,21.0834 C18.4828222,21.1281778 18.4810889,21.1798889 18.4805111,21.2362222 L18.4805111,21.8665778 C18.4805111,22.204 18.2017333,22.4787333 17.8631556,22.4787333 L17.6418667,22.4787333 C17.3027111,22.4787333 17.0239333,22.204 17.0239333,21.8665778 L17.0239333,21.7966667 L17.0239333,21.1033333 L17.0239333,20.2086444 L19.6106444,20.2086444 L19.6106444,19.2350889 C19.6106444,18.5235556 19.5924444,17.8123111 19.5335111,17.4055556 C19.3483333,16.1188444 17.5422,15.9146 16.6298889,16.5732667 C16.3436,16.7789556 16.1249111,17.0542667 15.9978,17.4240444 C15.8695333,17.7941111 15.8056889,18.2996667 15.8056889,18.9418667 L15.8056889,21.0825333 C15.8062667,24.6410667 20.1286222,24.1381111 19.6129556,21.0773333 Z M13.8184222,9.45591111 C13.8961333,9.64484444 14.0168889,9.79795556 14.1806889,9.91351111 C14.3424667,10.0273333 14.5493111,10.0845333 14.7971778,10.0845333 C15.0144222,10.0845333 15.2068222,10.0258889 15.3743778,9.90484444 C15.5413556,9.78437778 15.6820444,9.6044 15.7970222,9.36433333 L15.7684222,9.9554 L17.4477333,9.9554 L17.4477333,2.81377778 L16.1257778,2.81377778 L16.1257778,8.372 C16.1257778,8.67302222 15.8779111,8.91944444 15.5748667,8.91944444 C15.2735556,8.91944444 15.0248222,8.67302222 15.0248222,8.372 L15.0248222,2.81377778 L13.6450889,2.81377778 L13.6450889,7.63071111 C13.6450889,8.24431111 13.6563556,8.65337778 13.6745556,8.8608 C13.6933333,9.06677778 13.7407111,9.26437778 13.8184222,9.45591111 Z M8.72935556,5.42244444 C8.72935556,4.73691111 8.78655556,4.2016 8.90008889,3.81564444 C9.01448889,3.43113333 9.21988889,3.12202222 9.51744444,2.88888889 C9.81413333,2.6546 10.1940222,2.53731111 10.6559556,2.53731111 C11.0445111,2.53731111 11.3773111,2.61357778 11.6552222,2.76293333 C11.9345778,2.91315556 12.1500889,3.10815556 12.2994444,3.3488 C12.4516889,3.59031111 12.5551111,3.83846667 12.6102889,4.0924 C12.6666222,4.3498 12.6943556,4.73806667 12.6943556,5.26182222 L12.6943556,7.06795556 C12.6943556,7.73037778 12.6677778,8.21773333 12.6160667,8.52713333 C12.5649333,8.8374 12.4551556,9.12513333 12.285,9.39495556 C12.1174444,9.66188889 11.9010667,9.86151111 11.6387556,9.98891111 C11.3735556,10.1174667 11.0702222,10.1804444 10.7276,10.1804444 C10.3448222,10.1804444 10.0224222,10.1275778 9.75664444,10.0172222 C9.49,9.90744444 9.28402222,9.74191111 9.13726667,9.52206667 C8.98906667,9.30193333 8.88477778,9.03384444 8.8218,8.72126667 C8.75853333,8.40897778 8.72848889,7.93924444 8.72848889,7.31322222 L8.72935556,5.42244444 Z M10.0446667,8.25933333 C10.0446667,8.66377778 10.3456889,8.99397778 10.7122889,8.99397778 C11.0791778,8.99397778 11.3790444,8.66377778 11.3790444,8.25933333 L11.3790444,4.45755556 C11.3790444,4.05368889 11.0791778,3.72348889 10.7122889,3.72348889 C10.3456889,3.72348889 10.0446667,4.05368889 10.0446667,4.45755556 L10.0446667,8.25933333 Z M5.39702222,10.179 L6.98128889,10.179 L6.98302222,4.70166667 L8.85502222,0.00953333333 L7.12226667,0.00953333333 L6.12704444,3.49468889 L5.11766667,0 L3.40282222,0 L5.39442222,4.70426667 L5.39702222,10.179 Z" id="YouTube"></path>
                    </g>
                </g>
            </g>
        </g>
    </g>
</svg>